Coordinates
version=1
nRows=11
nColumns=63
inDegrees=yes

Units are S.I. units (second, meters, Newtons, ...)
If the header above contains a line with 'inDegrees', this indicates whether rotational values are in degrees (yes) or radians (no).

endheader
time	pelvis_tilt	pelvis_list	pelvis_rotation	pelvis_tx	pelvis_ty	pelvis_tz	hip_flexion_r	hip_adduction_r	hip_rotation_r	knee_angle_r	knee_angle_r_beta	ankle_angle_r	subtalar_angle_r	mtp_angle_r	hip_flexion_l	hip_adduction_l	hip_rotation_l	knee_angle_l	knee_angle_l_beta	ankle_angle_l	subtalar_angle_l	mtp_angle_l	L5_S1_Flex_Ext	L5_S1_Lat_Bending	L5_S1_axial_rotation	L4_L5_Flex_Ext	L4_L5_Lat_Bending	L4_L5_axial_rotation	L3_L4_Flex_Ext	L3_L4_Lat_Bending	L3_L4_axial_rotation	L2_L3_Flex_Ext	L2_L3_Lat_Bending	L2_L3_axial_rotation	L1_L2_Flex_Ext	L1_L2_Lat_Bending	L1_L2_axial_rotation	L1_T12_Flex_Ext	L1_T12_Lat_Bending	L1_T12_axial_rotation	Abs_r3	Abs_r2	Abs_r1	Abs_t1	Abs_t2	neck_flexion	neck_bending	neck_rotation	arm_flex_r	arm_add_r	arm_rot_r	elbow_flex_r	pro_sup_r	wrist_flex_r	wrist_dev_r	arm_flex_l	arm_add_l	arm_rot_l	elbow_flex_l	pro_sup_l	wrist_flex_l	wrist_dev_l
      5.29787234	      2.92237222	     -8.07000886	    107.21710385	      0.17345960	      0.98919199	      0.51127350	      0.58112075	      2.62088403	    -29.01138348	      8.60740095	      0.15022749	     30.18973334	     13.33589557	      0.00000000	      2.41935348	     -0.98993365	     11.91641385	      7.60497629	      0.13273188	     28.64192830	     -1.18578334	      0.00000000	     -0.00939273	      0.20420353	     -2.67458085	     -0.01744324	      0.27159070	     -2.84174215	     -0.01543131	      0.49650046	     -2.84174215	     -0.01073495	      0.49650046	     -2.34025824	     -0.00872209	      0.41641184	     -2.17309694	     -0.00536701	      0.31631127	     -2.00593564	     -0.06709132	      2.30999117	    -14.87521630	      0.00000000	      0.00000000	     22.87962722	      0.37938899	     -4.64459832	      9.72628019	    -14.45826936	     70.79344489	     57.97357091	     88.38721649	     -1.58459344	      0.04487406	      3.04859139	    -11.06490713	     45.68076749	     63.34151427	     73.73342503	     15.12393612	     18.19334709
      5.31914894	      2.99374551	     -8.39246894	    107.54595679	      0.17327608	      0.98921262	      0.51453771	      1.24249949	      2.48956527	    -28.94508883	      8.91569098	      0.15560816	     30.07886536	     12.70742428	      0.00000000	      3.33807985	     -0.91321246	     11.23351064	      8.27703474	      0.14446151	     28.79061178	     -0.06367426	      0.00000000	     -0.00240318	      0.22680595	     -2.71513534	     -0.00446294	      0.30165192	     -2.88483130	     -0.00394818	      0.55145599	     -2.88483130	     -0.00274659	      0.55145599	     -2.37574342	     -0.00223159	      0.46250270	     -2.20604746	     -0.00137318	      0.35132242	     -2.03635150	     -0.01716567	      2.56567429	    -15.10076822	      0.00000000	      0.00000000	     23.32162810	      0.18132542	     -4.67978358	      8.95212633	    -14.70712897	     68.71903660	     58.46569833	     88.51417033	     -1.44122676	      1.01749013	      3.96489155	    -11.24348292	     47.20814191	     62.97768767	     71.29347036	     15.12949830	     19.71456894
      5.34042553	      3.05426577	     -8.77083529	    107.79151275	      0.17307309	      0.98939648	      0.51790727	      2.02271640	      2.25684736	    -29.04725721	      9.37703559	      0.16366015	     29.97822016	     12.35037531	      0.00000000	      4.24712253	     -0.76225021	     11.06309775	      8.85100108	      0.15447911	     28.68123978	      0.20197600	      0.00000000	      0.00536176	      0.25128185	     -2.77275718	      0.00995733	      0.33420486	     -2.94605450	      0.00880884	      0.61096669	     -2.94605450	      0.00612796	      0.61096669	     -2.42616253	      0.00497893	      0.51241395	     -2.25286521	      0.00306371	      0.38923559	     -2.07956788	      0.03829853	      2.84255054	    -15.42124360	      0.00000000	      0.00000000	     23.72952029	      0.30013305	     -4.43473172	      8.99465085	    -14.76109841	     68.19025439	     58.48213306	     88.66047909	     -1.67763551	      1.40242359	      4.87828996	    -11.20899721	     48.25976370	     62.38563136	     71.13671121	     15.28548987	     21.07319301
      5.36170213	      3.01215834	     -8.96846196	    107.80907849	      0.17339777	      0.98985129	      0.52014171	      2.36381962	      2.09914427	    -28.90257797	      9.42411367	      0.16448181	     29.76237531	     12.38945352	      0.00000000	      4.63069673	     -0.63300524	     10.90859429	      8.93076676	      0.15587128	     28.35831158	      0.23927729	      0.00000000	     -0.01188976	      0.26405670	     -2.83161517	     -0.02208047	      0.35119541	     -3.00859112	     -0.01953368	      0.64202747	     -3.00859112	     -0.01358880	      0.64202747	     -2.47766327	     -0.01104083	      0.53846443	     -2.30068733	     -0.00679381	      0.40902383	     -2.12371138	     -0.08492735	      2.98706223	    -15.74859409	      0.00000000	      0.00000000	     23.90492107	      0.32823685	     -4.48700482	      9.24000682	    -14.55473304	     68.04694722	     58.13804559	     88.73504644	     -1.73740421	      1.63114539	      5.37050963	    -11.04216026	     48.42045712	     61.56302183	     71.08531629	     15.13108625	     21.51406150
      5.38297872	      3.14873735	     -9.39448862	    107.97811617	      0.17375118	      0.98979064	      0.52257932	      3.20517532	      2.07555664	    -27.77630242	      9.82286437	      0.17144133	     29.39316374	     10.27362619	      0.00000000	      5.73172743	     -0.74273032	      8.75573878	      9.86157910	      0.17211702	     28.81234053	      3.25441810	      0.00000000	      0.00910872	      0.29043585	     -2.78636800	      0.01691581	      0.38627968	     -2.96051600	      0.01496472	      0.70616572	     -2.96051600	      0.01041036	      0.70616572	     -2.43807200	      0.00845836	      0.59225678	     -2.26392400	      0.00520473	      0.44988513	     -2.08977600	      0.06506271	      3.28546838	    -15.49694292	      0.00000000	      0.00000000	     24.36797956	      0.01520142	     -5.45388907	      9.07365878	    -14.59661647	     66.72198834	     58.13782190	     88.77762491	     -0.65666742	      3.07580103	      7.13384162	    -11.23751421	     51.97478909	     61.21752643	     61.59378236	      9.71294349	     24.53103188
      5.40425532	      3.17777044	     -9.71873000	    107.85596439	      0.17433543	      0.98976313	      0.52412260	      3.77617681	      1.96480381	    -27.17069685	     10.07587860	      0.17585726	     29.20684000	      9.58355109	      0.00000000	      6.31326546	     -0.70156399	      8.14152816	     10.17381972	      0.17756665	     28.74021231	      3.81981855	      0.00000000	      0.01558076	      0.30788613	     -2.77732474	      0.02893504	      0.40948856	     -2.95090754	      0.02559764	      0.74859434	     -2.95090754	      0.01780726	      0.74859434	     -2.43015915	      0.01446830	      0.62784140	     -2.25657635	      0.00890285	      0.47691562	     -2.08299355	      0.11129184	      3.48286951	    -15.44664700	      0.00000000	      0.00000000	     24.71898427	     -0.28766678	     -6.11992847	      8.90882094	    -14.61507703	     65.19473164	     58.01683483	     88.62602904	      0.79062869	      3.73761604	      8.15093519	    -11.21695892	     53.64446198	     60.77125956	     56.69248210	      6.47537227	     23.76019005
      5.42553191	      3.11509339	     -9.88161160	    107.62132994	      0.17517819	      0.98965447	      0.52493396	      4.00041440	      1.86703034	    -27.01809893	     10.07769000	      0.17588887	     29.19234242	      9.67647715	      0.00000000	      6.48466692	     -0.62487855	      8.05360599	     10.15405794	      0.17722174	     28.67551713	      3.77558574	      0.00000000	      0.00589380	      0.31362469	     -2.83989955	      0.01094538	      0.41712084	     -3.01739328	      0.00968293	      0.76254707	     -3.01739328	      0.00673603	      0.76254707	     -2.48491211	      0.00547299	      0.63954347	     -2.30741839	      0.00336772	      0.48580465	     -2.12992467	      0.04209885	      3.54778523	    -15.79466935	      0.00000000	      0.00000000	     24.73469473	     -0.27417587	     -6.19162127	      9.19766565	    -14.68466687	     64.81173692	     57.95467456	     88.46774468	      0.75662226	      3.71147198	      8.60262310	    -11.11504505	     53.39836463	     60.60167086	     56.63959814	      6.35815377	     23.61805468
      5.44680851	      3.09702872	    -10.30615035	    106.94071281	      0.17621530	      0.98937544	      0.52574995	      4.75054648	      1.67023369	    -25.77467948	     10.59120052	      0.18485132	     29.17618925	      8.96181791	      0.00000000	      7.04449255	     -0.53518628	      7.30404499	     10.44822988	      0.18235601	     28.47671579	      3.63263026	      0.00000000	      0.03617129	      0.32078032	     -2.72204383	      0.06717370	      0.42663783	     -2.89217157	      0.05942581	      0.77994527	     -2.89217157	      0.04134017	      0.77994527	     -2.38178835	      0.03358866	      0.65413523	     -2.21166061	      0.02066827	      0.49688872	     -2.04153287	      0.25836791	      3.62873116	    -15.13919118	      0.00000000	      0.00000000	     25.22524854	     -0.83758061	     -7.11827847	      8.17418876	    -14.60967258	     61.08639825	     57.72889745	     87.08023803	      4.28794061	      4.43480402	      9.42574211	    -10.80389788	     54.65032877	     59.87548703	     55.67603773	      5.55197714	     20.48231837
      5.46808511	      2.94284329	    -10.43954775	    106.39097451	      0.17729947	      0.98937726	      0.52622576	      5.01825228	      1.46719521	    -25.33569116	     10.85473637	      0.18945089	     29.29125141	      9.02145254	      0.00000000	      7.18324402	     -0.40525159	      6.88186039	     10.57866823	      0.18463259	     28.31109218	      3.40270080	      0.00000000	      0.03167758	      0.31504842	     -2.72779162	      0.05882844	      0.41901440	     -2.89827859	      0.05204310	      0.76600874	     -2.89827859	      0.03620431	      0.76600874	     -2.38681766	      0.02941580	      0.64244674	     -2.21633069	      0.01810057	      0.48801001	     -2.04584371	      0.22626979	      3.56389077	    -15.17115864	      0.00000000	      0.00000000	     25.41537210	     -0.96504315	     -7.06221458	      8.11279230	    -14.46674460	     59.81629178	     57.27852289	     85.43891536	      4.82157360	      4.18455928	      9.55983497	    -10.46676606	     54.06374325	     59.50001306	     56.02630632	      5.51596186	     19.59915615
      5.48936170	      2.74801025	    -10.58120264	    105.43113392	      0.17883098	      0.98908223	      0.52595300	      5.25306609	      1.37069725	    -23.50405163	     10.99963040	      0.19197977	     29.26735511	      7.94194182	      0.00000000	      7.12019607	     -0.30939395	      6.02432475	     10.44251457	      0.18225626	     28.25873030	      3.33879073	      0.00000000	      0.04412843	      0.29930216	     -2.65505909	      0.08195090	      0.39807188	     -2.82100028	      0.07249859	      0.72772328	     -2.82100028	      0.05043438	      0.72772328	     -2.32317670	      0.04097766	      0.61033697	     -2.15723551	      0.02521498	      0.46361905	     -1.99129432	      0.31520494	      3.38576592	    -14.76664213	      0.00000000	      0.00000000	     25.43221137	     -0.89048034	     -7.01669889	      8.07766123	    -14.35501667	     58.98486761	     56.80786812	     76.32308322	      6.93420460	      5.78191013	      9.33135122	     -9.98338572	     52.50130261	     58.91537673	     59.27419972	      7.77901510	     19.11471008
      5.51063830	      2.43948428	    -10.66212558	    104.45295088	      0.18046501	      0.98895467	      0.52605366	      5.43750372	      1.10006866	    -22.48515388	     11.24720263	      0.19630072	     29.39507005	      7.85544564	      0.00000000	      6.99088945	     -0.10795135	      5.25132015	     10.31179206	      0.17997472	     28.16981423	      3.14405179	      0.00000000	      0.04195647	      0.26802990	     -2.59747292	      0.07791736	      0.35647976	     -2.75981498	      0.06893029	      0.65168789	     -2.75981498	      0.04795205	      0.65168789	     -2.27278881	      0.03896078	      0.54656657	     -2.11044675	      0.02397393	      0.41517831	     -1.94810469	      0.29969088	      3.03200780	    -14.44636514	      0.00000000	      0.00000000	     25.50497817	     -0.25196344	     -6.17829945	      8.19546912	    -14.04898365	     58.48311858	     56.19649757	     71.66095906	      7.25346373	      5.78362796	      8.77184012	     -9.53635650	     50.36205460	     58.71656585	     61.68377332	      8.64727730	     19.90307921
